<svg xmlns="http://www.w3.org/2000/svg" version="1.1" xmlns:xlink="http://www.w3.org/1999/xlink" xmlns:svgjs="http://svgjs.dev/svgjs" width="2000" height="2250" viewBox="0 0 2000 2250"><g transform="matrix(1,0,0,1,3.410605131648481e-13,0)"><svg viewBox="0 0 320 360" data-background-color="#ffffff" preserveAspectRatio="xMidYMid meet" height="2250" width="2000" xmlns="http://www.w3.org/2000/svg" xmlns:xlink="http://www.w3.org/1999/xlink"><g id="tight-bounds" transform="matrix(1,0,0,1,0,0)"><svg viewBox="0 0 320 360" height="360" width="320"><g><svg></svg></g><g><svg viewBox="0 0 320 360" height="360" width="320"><g><path xmlns="http://www.w3.org/2000/svg" d="M20.961 227.22l3.726 4.658-1.863-6.056c-0.466-2.795-3.726 0.466-1.863 1.398M25.153 224.425c1.397 2.329 2.795 4.658 2.795 6.987 0 3.261 2.795 4.658 5.123 5.589-3.261-3.726-5.124-13.974-7.918-12.576M204.017 26.929c7.918 0 15.371-0.932 23.756 0.931 20.495 5.124 37.729 15.371 49.374 29.811l32.606 52.169c1.397 13.042 4.192 27.482 3.726 43.319 3.261 0 2.795-4.658 6.521-5.59-3.726 9.316-5.59 20.961-6.521 34.469-2.329-7.453 0-18.632 0.466-24.687-3.261 5.124-5.124 1.397-5.124-0.932 0.466-3.726-1.397-3.261-2.795-4.658-5.124-4.658-8.384-9.782-12.11-17.7 2.329-6.055 2.795-14.905-4.658-19.563-2.329-1.397-5.124-3.726-6.521-7.453-1.863-5.124-5.124-11.179-4.193-19.097 0.466-2.329-6.987 5.124-11.179 1.863-18.166-12.576-36.332-27.016-58.224-39.127-11.645 0-20.029-4.192-24.221-9.316-3.726-4.658-0.932-10.713 4.658-11.179 3.261 0 6.987-0.932 9.782 0.932 0.466-1.863 2.329-4.192 4.657-4.192M157.904 16.215l0.932 0.466c4.658 0.932 6.987 7.453 12.11 5.124 0 3.261 0.466 6.521-0.466 8.85-1.397 3.726-5.59 3.726-8.85 3.726-31.208-1.863-49.374 11.179-68.471 22.358-5.124 3.261-10.713 5.59-14.906 9.782-20.029 18.632-41.921 35.866-47.045 70.335l-4.192 38.195c-0.466 4.192-5.124 8.384-4.192 13.508l3.26 22.824c-3.261-3.261-5.124 0.932-4.192 2.795 0.466 1.397 2.329 6.055 5.124 1.863 3.726 6.987 7.453 20.495 12.576 26.55 15.837 18.632 36.332 35.4 53.101 52.169 4.192-0.932 7.453-0.932 8.384-3.727 1.397 2.795-1.397 5.59-3.726 6.056 7.453 4.658 15.837 8.85 27.016 9.781 14.44 0.932 27.948 3.261 40.524 6.522 6.521-1.863 13.042-2.795 20.029-3.261 2.329 0 3.726-3.726 6.521-4.658l0.466-4.658c2.795 4.192 2.329-1.397 0.466-4.192 3.261 2.795 4.192 5.124 5.589 6.987 0-1.397 3.726-6.521 3.727-0.466l0.931-6.055c1.397-0.932 1.863 5.124 3.261 0.931 1.397-4.192 4.192-0.932 6.987-2.329-0.932 1.863-0.466 5.59 2.794 3.261l3.727-3.261c2.329 5.59 6.055 3.261 7.918 2.329 20.495-13.042 40.99-28.413 60.553-43.784l-0.466 6.055 2.329-7.453c2.329 2.329 4.192 0.466 5.124-0.931 2.795-4.658 6.521-9.316 12.577-13.508-7.453 20.029-16.303 35.866-27.482 48.908l-4.658 5.59c0 3.261-0.932 7.453-4.658 7.918-1.863 0.466-5.59-0.932-8.384 1.863-1.397 1.863 3.261 5.59-0.466 2.795-3.261-2.329-6.521 0-10.248 0.932-2.795 0.932 1.863 3.726 2.795 5.589 0.932 1.863 1.863 3.726 1.398 6.056l-5.124-5.59c-6.055 3.261-9.782 9.316-14.906 13.974-2.329 1.863-1.397 5.124-1.397 7.918-3.261 0-6.987-0.932-8.85 0.932-1.397 1.863-0.932 4.658-0.932 7.453-4.658-0.466-5.124-7.453-9.315-6.056-4.192 0.932-8.85 1.397-12.577 3.727 2.795 5.59-4.658 2.329-3.726 3.26-6.987-4.192-13.042-7.453-20.495-4.658-15.837-5.124-35.4-2.795-49.84-0.931 0-2.329 0.466-4.658-0.466-5.124-0.932 2.329-3.726 1.397-3.26 1.397-8.85-6.055-17.7-9.782-27.016-14.905-8.384 0.932-16.303-3.261-18.632-5.59-6.521-6.055-13.974-2.795-20.029-4.192-13.042-3.261-17.7-16.769-19.098-26.084-0.932-4.658-4.658-6.521-6.055-6.056-6.055-19.563-15.371-37.263-22.824-55.429-1.863-4.658-1.397-9.316-1.397-14.44 2.329 0.932 4.658 0.466 4.192-2.794-2.329-15.371-7.918-27.016-13.974-38.195 3.261-15.837 3.726-34.469 11.179-48.443 6.521-12.576 18.632-19.098 27.016-29.811 2.795-3.726 2.795-8.85 5.59-12.11 9.316-9.316 18.632-19.098 28.879-27.482 4.658-3.726 10.247 0 17.234-1.397 2.329-8.384 11.645-15.837 20.495-13.508 3.726 0.932 11.179-8.85 13.508-9.782 3.726-1.397 1.863 3.726 1.863 6.987 8.85-6.987 20.961-10.713 32.14-14.906" fill="#ff0033" fill-rule="nonzero" stroke="none" stroke-width="1" stroke-linecap="butt" stroke-linejoin="miter" stroke-miterlimit="10" stroke-dasharray="" stroke-dashoffset="0" font-family="none" font-weight="none" font-size="none" text-anchor="none" style="mix-blend-mode: normal" data-fill-palette-color="tertiary"></path></g><g transform="matrix(1,0,0,1,64,103.65939479239972)"><svg viewBox="0 0 192 152.68121041520055" height="152.68121041520055" width="192"><g><svg viewBox="0 0 192 152.68121041520055" height="152.68121041520055" width="192"><g><svg viewBox="0 0 192 152.68121041520055" height="152.68121041520055" width="192"><g><svg viewBox="0 0 192 152.68121041520055" height="152.68121041520055" width="192"><g id="textblocktransform"><svg viewBox="0 0 192 152.68121041520055" height="152.68121041520055" width="192" id="textblock"><g><svg viewBox="0 0 192 152.68121041520055" height="152.68121041520055" width="192"><g transform="matrix(1,0,0,1,0,0)"><svg width="192" viewBox="-0.10000000149011612 -40.70000076293945 71.04999542236328 56.5" height="152.68121041520055" data-palette-color="#ff0033"><path d="M45-33.95L45-33.95Q45-35.7 43.4-37.25L43.4-37.25Q41.1-39.45 37.05-39.45L37.05-39.45Q33.5-39.45 29.2-37.9L29.2-37.9Q26.95-37.1 25.3-35.7L25.3-35.7Q22.75-33.5 22.75-31.3L22.75-31.3Q22.75-28.35 26.5-26L26.5-26Q27.9-25.15 32.13-23.23 36.35-21.3 38.3-20.1L38.3-20.1Q41.25-18.3 42.38-16.25 43.5-14.2 43.5-12.45L43.5-12.45Q43.5-9.95 41.85-7.35L41.85-7.35Q38.95-2.7 33.35 0.65L33.35 0.65Q26.9 4.55 17.8 4.55L17.8 4.55Q9.05 4.55 3.9 0.1L3.9 0.1Q-0.1-3.3-0.1-8.65L-0.1-8.65Q-0.1-12.05 2.38-16.15 4.85-20.25 8.45-21.95L8.45-21.95Q9.2-22.25 9.58-22.15 9.95-22.05 8.95-21.2L8.95-21.2Q6.8-19.5 5.5-17.45L5.5-17.45Q2.7-13.05 2.7-7.9L2.7-7.9Q2.7-4.5 4.6-1.95L4.6-1.95Q8 2.6 16.4 3.2L16.4 3.2Q17.35 3.3 19.23 3.3 21.1 3.3 24.33 2.63 27.55 1.95 30.55 0.4L30.55 0.4Q37-3 38.9-8.4L38.9-8.4Q39.5-10 39.5-11.5L39.5-11.5Q39.5-14.9 36.45-17.5L36.45-17.5Q34.8-18.8 29.73-20.98 24.65-23.15 22.9-24.3L22.9-24.3Q19.05-26.9 19.05-30.45L19.05-30.45Q19.05-33.55 22.5-36.5L22.5-36.5Q27.45-40.7 36.5-40.7L36.5-40.7Q40.75-40.7 43.43-39.43 46.1-38.15 46.7-35.6L46.7-35.6Q46.8-35.1 46.8-34.6L46.8-34.6Q46.8-32.65 45-31.1L45-31.1Q43.75-30.1 41.65-29.5L41.65-29.5Q40.75-29.25 40.65-29.7L40.65-29.7Q40.55-30.35 41.9-30.5L41.9-30.5Q44.3-30.8 44.85-32.9L44.85-32.9Q45-33.45 45-33.95ZM47.55-8.9L50.2-14.65Q50.35-14.95 50.35-15.45 50.35-15.95 49.7-16.75L49.7-16.75 52.45-16.8Q53.6-16.8 53.8-16.38 54-15.95 53.5-15.05L53.5-15.05 49.5-5.7Q48.25-2.75 46.4 0.9L46.4 0.9Q48.35 0.15 49.25-0.25 50.15-0.65 51.42-1.7 52.7-2.75 53.62-4.13 54.55-5.5 56.75-9.65L56.75-9.65Q57.1-10.35 57.37-10.2 57.65-10.05 57.65-9.8 57.65-9.55 56.82-7.88 56-6.2 55.15-4.75 54.3-3.3 52.95-1.8 51.6-0.3 49.95 0.6 48.3 1.5 45.55 2.5L45.55 2.5Q41.7 9.5 37.75 12.8L37.75 12.8Q36.25 14.05 34.2 14.93 32.15 15.8 29.92 15.8 27.7 15.8 26.5 14.88 25.3 13.95 25.3 12.65 25.3 11.35 26.05 9.7L26.05 9.7Q27.35 7.15 30.75 5.6L30.75 5.6Q33.3 4.4 37.5 3.38 41.7 2.35 42.9 2L42.9 2Q44.15-0.15 44.37-0.63 44.6-1.1 48-8.1L48-8.1Q47.2-8.1 47.55-8.9L47.55-8.9ZM27 10.85L27 10.85Q26.45 11.95 26.45 12.85 26.45 13.75 27.15 14.28 27.85 14.8 28.85 14.8L28.85 14.8Q31.75 14.8 35.1 11.8L35.1 11.8Q39.8 7.6 41.95 3.6L41.95 3.6Q33.65 5.8 31.6 6.7L31.6 6.7Q28.35 8.1 27 10.85ZM54.75-19.45Q54.05-18.85 53.2-18.85 52.35-18.85 51.9-19.4 51.45-19.95 51.45-20.35 51.45-20.75 51.52-21.25 51.6-21.75 52.3-22.35 53-22.95 53.85-22.95 54.7-22.95 55.17-22.43 55.65-21.9 55.65-21.5 55.65-21.1 55.55-20.58 55.45-20.05 54.75-19.45ZM65.95-11.5L65.95-11.5Q67.7-13.6 67.7-15.05 67.7-16.5 66.5-16.5L66.5-16.5Q64.15-16.5 61.15-12.2L61.15-12.2Q60.2-10.85 59.3-8.65 58.4-6.45 58.4-4.67 58.4-2.9 59.12-1.8 59.85-0.7 61.37-0.7 62.9-0.7 64.2-1.43 65.5-2.15 66.67-3.73 67.85-5.3 68.45-6.35 69.05-7.4 70.1-9.5L70.1-9.5Q70.45-10.2 70.7-10.08 70.95-9.95 70.95-9.73 70.95-9.5 70.27-8.08 69.6-6.65 68.92-5.4 68.25-4.15 67-2.6L67-2.6Q64.75 0.2 60.85 0.2L60.85 0.2Q58.05 0.2 56.82-1.18 55.6-2.55 55.6-4.35L55.6-4.35Q55.6-6.55 56.67-9.15 57.75-11.75 59.15-13.65L59.15-13.65Q62.05-17.6 65.85-17.6L65.85-17.6Q67.7-17.6 68.52-16.73 69.35-15.85 69.35-14.7L69.35-14.7Q69.35-13 67.95-11.8L67.95-11.8Q67.25-11.15 66.77-11.15 66.3-11.15 65.95-11.5Z" opacity="1" transform="matrix(1,0,0,1,0,0)" fill="#ff0033" class="wordmark-text-0" data-fill-palette-color="primary" id="text-0"></path></svg></g></svg></g></svg></g></svg></g></svg></g></svg></g></svg></g></svg></g><defs></defs></svg><rect width="320" height="360" fill="none" stroke="none" visibility="hidden"></rect></g></svg></g></svg>